<?xml version="1.0" encoding="UTF-8" standalone="no"?>
<svg width="400px" height="121px" viewBox="0 0 400 121" version="1.1" xmlns="http://www.w3.org/2000/svg" xmlns:xlink="http://www.w3.org/1999/xlink" xmlns:sketch="http://www.bohemiancoding.com/sketch/ns">
    <!-- Generator: Sketch 3.2.2 (9983) - http://www.bohemiancoding.com/sketch -->
    <title>Imported Layers</title>
    <desc>Created with Sketch.</desc>
    <defs></defs>
    <g id="Page-1" stroke="none" stroke-width="1" fill="none" fill-rule="evenodd" sketch:type="MSPage">
        <g id="Imported-Layers" sketch:type="MSLayerGroup" transform="translate(0.000000, -1.000000)">
            <path d="M0.171158537,1.86904 L36.8773293,1.86904 L36.8773293,12.6392 L24.4658902,12.6392 L24.4658902,77.26992 L12.5874878,77.26992 L12.5874878,12.6392 L0.171158537,12.6392 L0.171158537,1.86904" id="Fill-1" fill="#2673AB" sketch:type="MSShapeGroup"></path>
            <path d="M41.082939,19.96408 C41.082939,7.90072 47.4549268,1.00528 59.1132683,1.00528 C70.7716098,1.00528 77.1435976,7.90072 77.1435976,19.96408 L77.1435976,59.17488 C77.1435976,71.23824 70.7716098,78.13368 59.1132683,78.13368 C47.4549268,78.13368 41.082939,71.23824 41.082939,59.17488 L41.082939,19.96408 L41.082939,19.96408 Z M52.9613415,59.9264 C52.9613415,65.31392 55.3331098,67.36352 59.1132683,67.36352 C62.8934268,67.36352 65.2651951,65.31392 65.2651951,59.9264 L65.2651951,19.21256 C65.2651951,13.82504 62.8934268,11.77544 59.1132683,11.77544 C55.3331098,11.77544 52.9613415,13.82504 52.9613415,19.21256 L52.9613415,59.9264 L52.9613415,59.9264 Z" id="Fill-2" fill="#2673AB" sketch:type="MSShapeGroup"></path>
            <path d="M108.66122,55.40264 L116.759463,1.86904 L133.273817,1.86904 L133.273817,77.26992 L122.045817,77.26992 L122.045817,23.19464 L113.844878,77.26992 L102.616878,77.26992 L93.7655366,23.95104 L93.7655366,77.26992 L83.3982195,77.26992 L83.3982195,1.86904 L99.9174634,1.86904 L108.66122,55.40264" id="Fill-3" fill="#2673AB" sketch:type="MSShapeGroup"></path>
            <path d="M184.978366,37.09288 L180.66028,77.26992 L164.356207,77.26992 L155.935207,1.86904 L167.490854,1.86904 L173.857951,61.33184 L179.579537,1.86904 L191.022707,1.86904 L196.959463,61.76128 L203.11139,1.86904 L213.478707,1.86904 L205.057707,77.26992 L189.296451,77.26992 L184.978366,37.09288" id="Fill-4" fill="#2673AB" sketch:type="MSShapeGroup"></path>
            <path d="M243.421671,77.26992 C242.771268,75.33256 242.340927,74.14672 242.340927,68.00768 L242.340927,56.15904 C242.340927,49.15624 239.964268,46.56984 234.570329,46.56984 L230.467415,46.56984 L230.467415,77.26992 L218.589012,77.26992 L218.589012,1.86904 L236.511756,1.86904 C248.8205,1.86904 254.106854,7.57376 254.106854,19.21256 L254.106854,25.13688 C254.106854,32.8912 251.6275,37.95664 246.336256,40.4308 C252.273012,42.90984 254.214439,48.61944 254.214439,56.48112 L254.214439,68.11504 C254.214439,71.77504 254.326915,74.4688 255.515244,77.26992 L243.421671,77.26992 L243.421671,77.26992 Z M230.467415,12.6392 L230.467415,35.79968 L235.108256,35.79968 C239.533927,35.79968 242.233341,33.85744 242.233341,27.82576 L242.233341,20.39352 C242.233341,15.01088 240.3995,12.6392 236.189,12.6392 L230.467415,12.6392 L230.467415,12.6392 Z" id="Fill-5" fill="#2673AB" sketch:type="MSShapeGroup"></path>
            <path d="M260.821159,1.86904 L272.694671,1.86904 L272.694671,77.2748 L260.821159,77.2748 L260.821159,1.86904 Z" id="Fill-6" fill="#2673AB" sketch:type="MSShapeGroup"></path>
            <path d="M297.542,35.26288 L314.168829,35.26288 L314.168829,59.17488 C314.168829,71.23824 308.124488,78.13368 296.461256,78.13368 C284.802915,78.13368 278.758573,71.23824 278.758573,59.17488 L278.758573,19.96408 C278.758573,7.90072 284.802915,1.00528 296.461256,1.00528 C308.124488,1.00528 314.168829,7.90072 314.168829,19.96408 L314.168829,27.28896 L302.940829,27.28896 L302.940829,19.21256 C302.940829,13.82504 300.564171,11.77544 296.784012,11.77544 C293.008744,11.77544 290.632085,13.82504 290.632085,19.21256 L290.632085,59.9264 C290.632085,65.31392 293.008744,67.25128 296.784012,67.25128 C300.564171,67.25128 302.940829,65.31392 302.940829,59.9264 L302.940829,46.03304 L297.542,46.03304 L297.542,35.26288" id="Fill-7" fill="#2673AB" sketch:type="MSShapeGroup"></path>
            <path d="M332.062232,77.26992 L320.18872,77.26992 L320.18872,1.86904 L332.062232,1.86904 L332.062232,34.1844 L345.559305,34.1844 L345.559305,1.86904 L357.647988,1.86904 L357.647988,77.26992 L345.559305,77.26992 L345.559305,44.95456 L332.062232,44.95456 L332.062232,77.26992" id="Fill-8" fill="#2673AB" sketch:type="MSShapeGroup"></path>
            <path d="M362.362183,1.86904 L399.068354,1.86904 L399.068354,12.6392 L386.652024,12.6392 L386.652024,77.26992 L374.773622,77.26992 L374.773622,12.6392 L362.362183,12.6392 L362.362183,1.86904" id="Fill-9" fill="#2673AB" sketch:type="MSShapeGroup"></path>
            <path d="M9.60932927,103.4072 C11.1644268,103.4072 12.8857927,103.61704 14.3039634,104.87608 C15.8346098,106.21808 16.0497805,107.98464 16.0497805,109.2144 C16.0497805,111.46408 15.1939878,112.72312 14.5191341,113.42096 C13.0960732,114.86544 11.2182195,115.00208 9.95653659,115.00208 L7.43317073,115.00208 L7.43317073,121.268 L3.30091463,121.268 L3.30091463,103.4072 L9.60932927,103.4072 L9.60932927,103.4072 Z M7.43317073,111.62512 L8.91002439,111.62512 C9.47240244,111.62512 10.4700122,111.60072 11.1399756,110.95656 C11.5165244,110.5808 11.809939,109.96592 11.809939,109.19 C11.809939,108.43848 11.5409756,107.8236 11.1399756,107.44784 C10.5238049,106.85736 9.63378049,106.77928 8.83178049,106.77928 L7.43317073,106.77928 L7.43317073,111.62512 L7.43317073,111.62512 Z" id="Fill-10" fill="#182640" sketch:type="MSShapeGroup"></path>
            <path d="M35.1755244,106.88664 L29.1898659,106.88664 L29.1898659,110.34168 L34.8821098,110.34168 L34.8821098,113.82112 L29.1898659,113.82112 L29.1898659,117.78368 L35.1755244,117.78368 L35.1755244,121.268 L25.0576098,121.268 L25.0576098,103.4072 L35.1755244,103.4072 L35.1755244,106.88664" id="Fill-11" fill="#182640" sketch:type="MSShapeGroup"></path>
            <path d="M51.6458659,103.4072 C53.9247195,103.4072 55.3477805,104.15384 56.2084634,104.95904 C56.9566707,105.68128 57.763561,106.96472 57.763561,108.946 C57.763561,110.07328 57.523939,111.46408 56.3698415,112.59136 C55.7487805,113.17696 54.8636463,113.71376 53.8709268,113.95776 L59.3724512,121.268 L54.3257195,121.268 L49.4990488,114.22616 L49.4990488,121.268 L45.3619024,121.268 L45.3619024,103.4072 L51.6458659,103.4072 L51.6458659,103.4072 Z M49.4990488,111.51776 L50.4379756,111.51776 C51.1861829,111.51776 52.2082439,111.43968 52.9026585,110.74184 C53.2009634,110.44904 53.5775122,109.88296 53.5775122,109.00456 C53.5775122,107.98464 53.093378,107.44784 52.7461707,107.17944 C52.0713171,106.67192 51.0003537,106.61824 50.4624268,106.61824 L49.4990488,106.61824 L49.4990488,111.51776 L49.4990488,111.51776 Z" id="Fill-12" fill="#182640" sketch:type="MSShapeGroup"></path>
            <path d="M77.1484878,107.76992 C75.8036707,106.56456 74.6495732,106.4816 74.1409878,106.4816 C73.5786098,106.4816 72.8793049,106.56456 72.3951707,107.10136 C72.1262073,107.36976 71.940378,107.76992 71.940378,108.22376 L72.3462683,109.2144 C72.7717195,109.61456 73.3878902,109.78048 74.5957805,110.23432 L75.9405976,110.74184 C76.7181463,111.03952 77.6815244,111.43968 78.3808293,112.10824 C79.4273415,113.09888 79.6963049,114.3872 79.6963049,115.43152 C79.6963049,117.27616 79.0507927,118.88168 78.1118659,119.84792 C76.5323171,121.50712 74.224122,121.66816 73.0406829,121.66816 C71.7545488,121.66816 70.6249024,121.48272 69.5001463,120.92152 C68.5856707,120.4628 67.5391585,119.6332 66.8691951,118.96464 L69.0160122,116.01712 C69.4708049,116.47096 70.194561,117.09072 70.6786951,117.38352 C71.378,117.81296 72.1017561,118.02768 72.9330976,118.02768 C73.4710244,118.02768 74.224122,117.92032 74.8109512,117.4128 C75.1630488,117.11512 75.4564634,116.63688 75.4564634,115.96344 C75.4564634,115.37296 75.2168415,115.00208 74.8402927,114.68 C74.3561585,114.27496 73.2558537,113.8748 72.7472683,113.68936 L71.2704146,113.17696 C70.4390732,112.88416 69.4708049,112.51328 68.7715,111.76176 C67.8325732,110.76624 67.7005366,109.51208 67.7005366,108.6532 C67.7005366,107.07208 68.1846707,105.73496 69.2556341,104.63696 C70.5173171,103.34864 72.018622,103.00216 73.6861951,103.00216 C74.9185366,103.00216 76.9088659,103.21688 78.997,104.76872 L77.1484878,107.76992" id="Fill-13" fill="#182640" sketch:type="MSShapeGroup"></path>
            <path d="M104.929963,105.59832 C106.621988,107.23312 107.722293,109.59016 107.722293,112.35224 C107.722293,114.73368 106.86161,117.1688 104.929963,119.04272 C103.26728,120.65312 101.012878,121.66816 98.005378,121.66816 C94.6506707,121.66816 92.3718171,120.33104 91.027,119.04272 C89.3105244,117.4372 88.239561,115.02648 88.239561,112.40104 C88.239561,109.82928 89.3936585,107.23312 91.0025488,105.6276 C92.210439,104.42224 94.4403902,103.00216 98.005378,103.00216 C100.797707,103.00216 103.135244,103.86104 104.929963,105.59832 L104.929963,105.59832 Z M94.0638415,108.33112 C93.2862927,109.08264 92.4794024,110.39536 92.4794024,112.37664 C92.4794024,114.01144 93.0173293,115.32416 94.1176341,116.39288 C95.2717317,117.49088 96.5578659,117.86664 97.9515854,117.86664 C99.7805366,117.86664 101.066671,117.19808 101.927354,116.3392 C102.621768,115.67064 103.482451,114.4116 103.482451,112.35224 C103.482451,110.50272 102.729354,109.13632 101.927354,108.33112 C101.04222,107.47712 99.6191585,106.80368 97.9809268,106.80368 C96.4258293,106.80368 95.0272195,107.36976 94.0638415,108.33112 L94.0638415,108.33112 Z" id="Fill-14" fill="#182640" sketch:type="MSShapeGroup"></path>
            <path d="M117.370744,121.268 L117.370744,103.4072 L120.965073,103.4072 L130.681988,114.91912 L130.681988,103.4072 L134.814244,103.4072 L134.814244,121.268 L131.219915,121.268 L121.503,109.69752 L121.503,121.268 L117.370744,121.268" id="Fill-15" fill="#182640" sketch:type="MSShapeGroup"></path>
            <path d="M155.832512,117.89592 L149.069305,117.89592 L147.700037,121.268 L143.406402,121.268 L150.624402,103.4072 L154.409451,103.4072 L161.466073,121.268 L157.172439,121.268 L155.832512,117.89592 L155.832512,117.89592 Z M154.702866,114.73368 L152.502256,108.73128 L150.277195,114.73368 L154.702866,114.73368 L154.702866,114.73368 Z" id="Fill-16" fill="#182640" sketch:type="MSShapeGroup"></path>
            <path d="M174.180707,103.4072 L174.180707,117.78368 L179.736024,117.78368 L179.736024,121.268 L170.048451,121.268 L170.048451,103.4072 L174.180707,103.4072" id="Fill-17" fill="#182640" sketch:type="MSShapeGroup"></path>
            <path d="M231.934488,106.88664 L231.934488,121.268 L227.797341,121.268 L227.797341,106.88664 L223.909598,106.88664 L223.909598,103.4072 L235.822232,103.4072 L235.822232,106.88664 L231.934488,106.88664" id="Fill-18" fill="#182640" sketch:type="MSShapeGroup"></path>
            <path d="M250.761927,103.4072 C253.04078,103.4072 254.463841,104.15384 255.324524,104.95904 C256.077622,105.68128 256.879622,106.96472 256.879622,108.946 C256.879622,110.07328 256.64,111.46408 255.481012,112.59136 C254.864841,113.17696 253.979707,113.71376 252.986988,113.95776 L258.488512,121.268 L253.446671,121.268 L248.61511,114.22616 L248.61511,121.268 L244.477963,121.268 L244.477963,103.4072 L250.761927,103.4072 L250.761927,103.4072 Z M248.61511,111.51776 L249.554037,111.51776 C250.302244,111.51776 251.324305,111.43968 252.02361,110.74184 C252.317024,110.44904 252.693573,109.88296 252.693573,109.00456 C252.693573,107.98464 252.209439,107.44784 251.862232,107.17944 C251.187378,106.67192 250.116415,106.61824 249.578488,106.61824 L248.61511,106.61824 L248.61511,111.51776 L248.61511,111.51776 Z" id="Fill-19" fill="#182640" sketch:type="MSShapeGroup"></path>
            <path d="M278.680329,117.89592 L271.917122,117.89592 L270.547854,121.268 L266.25422,121.268 L273.47222,103.4072 L277.257268,103.4072 L284.31878,121.268 L280.025146,121.268 L278.680329,117.89592 L278.680329,117.89592 Z M277.555573,114.73368 L275.354963,108.73128 L273.125012,114.73368 L277.555573,114.73368 L277.555573,114.73368 Z" id="Fill-20" fill="#182640" sketch:type="MSShapeGroup"></path>
            <path d="M292.93539,103.4072 L297.067646,103.4072 L297.067646,121.268 L292.93539,121.268 L292.93539,103.4072 Z" id="Fill-21" fill="#182640" sketch:type="MSShapeGroup"></path>
            <path d="M307.659915,121.268 L307.659915,103.4072 L311.254244,103.4072 L320.971159,114.91912 L320.971159,103.4072 L325.103415,103.4072 L325.103415,121.268 L321.509085,121.268 L311.792171,109.69752 L311.792171,121.268 L307.659915,121.268" id="Fill-22" fill="#182640" sketch:type="MSShapeGroup"></path>
            <path d="M335.739695,103.4072 L339.871951,103.4072 L339.871951,121.268 L335.739695,121.268 L335.739695,103.4072 Z" id="Fill-23" fill="#182640" sketch:type="MSShapeGroup"></path>
            <path d="M350.46422,121.268 L350.46422,103.4072 L354.063439,103.4072 L363.775463,114.91912 L363.775463,103.4072 L367.91261,103.4072 L367.91261,121.268 L364.31339,121.268 L354.596476,109.69752 L354.596476,121.268 L350.46422,121.268" id="Fill-24" fill="#182640" sketch:type="MSShapeGroup"></path>
            <path d="M387.053024,111.51776 L395.938598,111.51776 L395.938598,111.70808 C395.938598,113.8748 395.156159,117.1688 393.17561,119.23304 C391.18528,121.2924 388.906427,121.66816 386.784061,121.66816 C384.637244,121.66816 382.329049,121.32168 380.236024,119.17936 C379.189512,118.10576 377.605073,115.93904 377.605073,112.37664 C377.605073,109.4584 378.680927,107.12576 380.182232,105.59832 C382.382841,103.32424 385.092037,103.00216 387.214402,103.00216 C388.691256,103.00216 390.56911,103.24616 392.231793,104.34416 C393.439683,105.14448 394.491085,106.40352 395.131707,107.5308 L391.400451,109.53648 C391.053244,108.84352 390.515317,108.1164 389.820902,107.60888 C389.014012,107.0184 388.099537,106.75 387.082366,106.75 C385.444134,106.75 384.236244,107.2868 383.375561,108.19936 C382.382841,109.24368 381.849805,110.76624 381.849805,112.43032 C381.849805,114.46528 382.598012,115.778 383.35111,116.52464 C384.397622,117.59824 385.605512,117.92032 386.97478,117.92032 C388.745049,117.92032 389.683976,117.30544 390.084976,116.95408 C390.221902,116.84672 391.023902,116.15376 391.376,114.84104 L387.053024,114.84104 L387.053024,111.51776" id="Fill-25" fill="#182640" sketch:type="MSShapeGroup"></path>
            <path d="M202.441427,114.84592 C202.441427,117.95448 199.913171,120.47744 196.798085,120.47744 C193.67811,120.47744 191.154744,117.95448 191.154744,114.84592 C191.154744,111.73248 193.67811,109.2144 196.798085,109.2144 C199.913171,109.2144 202.441427,111.73248 202.441427,114.84592" id="Fill-26" fill="#E36449" sketch:type="MSShapeGroup"></path>
            <path d="M208.084768,109.82928 C208.084768,112.93784 205.561402,115.4608 202.441427,115.4608 C199.326341,115.4608 196.798085,112.93784 196.798085,109.82928 C196.798085,106.71584 199.326341,104.19776 202.441427,104.19776 C205.561402,104.19776 208.084768,106.71584 208.084768,109.82928" id="Fill-27" fill="#F7C24E" sketch:type="MSShapeGroup"></path>
            <path d="M196.866549,110.71256 C196.866549,110.71256 196.866549,110.71256 196.866549,110.71744 L196.866549,110.71256 M196.861659,110.67352 L196.861659,110.68328 L196.861659,110.67352 M196.856768,110.63448 L196.856768,110.64912 L196.856768,110.63448 M196.846988,110.59056 C196.851878,110.60032 196.851878,110.6052 196.851878,110.61496 C196.851878,110.6052 196.851878,110.60032 196.846988,110.59056 M196.846988,110.55152 L196.846988,110.5808 L196.846988,110.55152 M196.798085,109.82928 L196.798085,109.82928 C196.798085,110.07328 196.812756,110.3124 196.842098,110.54176 C196.812756,110.3124 196.798085,110.07328 196.798085,109.82928" id="Fill-28" fill="#F2AE3C" sketch:type="MSShapeGroup"></path>
            <path d="M196.861659,109.21928 L196.798085,109.82928 C196.798085,110.07328 196.812756,110.3124 196.842098,110.54176 L196.842098,110.55152 C196.846988,110.56128 196.846988,110.57104 196.846988,110.5808 L196.846988,110.59056 C196.851878,110.60032 196.851878,110.6052 196.851878,110.61496 C196.851878,110.61984 196.851878,110.62472 196.856768,110.63448 L196.856768,110.64912 C196.856768,110.654 196.861659,110.66376 196.861659,110.67352 L196.861659,110.68328 C196.866549,110.69304 196.866549,110.7028 196.866549,110.71256 C196.866549,110.71256 196.866549,110.71256 196.866549,110.71744 C197.292,113.38192 199.595305,115.42176 202.377854,115.45592 L202.441427,114.84592 C202.441427,111.75688 199.947402,109.25344 196.861659,109.21928" id="Fill-29" fill="#FEDA31" sketch:type="MSShapeGroup"></path>
        </g>
    </g>
</svg>